<svg xmlns="http://www.w3.org/2000/svg" width="400" height="400" viewBox="0 0 105.833 105.833">
  <circle cy="52.917" cx="52.917" r="52.917" fill="#646eb0"/>
  <path fill="#fff" d="M42.58 58.388h35.867c.209-1.669.312-4.015.312-5.892 0-17.83-10.165-28.413-25.962-28.413-17.413 0-27.005 13.19-27.005 29.56 0 17.204 9.748 29.404 28.777 29.404 9.436 0 16.892-3.129 22.105-7.612l-6.621-8.967c-4.38 2.815-9.123 4.588-14.18 4.588-7.038 0-12.2-3.597-13.294-12.668zm10.217-23.253c7.038 0 9.801 5.318 9.906 13.346H42.37c.73-9.28 4.536-13.346 10.427-13.346z"/>
</svg>
